<svg width="85" height="85" viewBox="0 0 85 85" fill="none" xmlns="http://www.w3.org/2000/svg">
<g clip-path="url(#clip0_196_293)">
<path d="M12 34.0053V74.375H50.9947V85H0V34.0053H12ZM85 0V85H59.5027V74.375H73V10.119H11.5V25.4973H0V0H85Z" fill="url(#paint0_linear_196_293)"/>
</g>
<g clip-path="url(#clip1_196_293)">
<path fill-rule="evenodd" clip-rule="evenodd" d="M32.9201 26.696C33.7858 22.3526 37.586 19.2262 41.9999 19.2262C46.4137 19.2262 50.2141 22.3526 51.0795 26.696L52.1139 31.8854C52.6545 34.599 53.7199 37.18 55.2495 39.4826L57.0294 42.1619C58.1402 43.8337 58.8664 45.7227 59.1669 47.6923C60.9357 47.8427 62.4862 48.981 63.1539 50.6561L64.6617 54.4392C65.422 56.3464 64.8721 58.5279 63.2995 59.8427L57.5216 64.6747C55.8393 66.0817 53.4138 66.144 51.6618 64.8255L49.3352 63.0744C49.3045 63.0514 49.274 63.0278 49.244 63.0039C48.1018 63.3146 46.9003 63.4806 45.6602 63.4806H38.3395C37.0995 63.4806 35.898 63.3149 34.756 63.0039C34.7259 63.0278 34.6955 63.0514 34.6648 63.0744L32.3382 64.8255C30.5862 66.144 28.1609 66.0817 26.4785 64.6747L20.7003 59.8427C19.1279 58.5279 18.578 56.3464 19.3382 54.4392L20.8462 50.6561C21.5138 48.9811 23.0642 47.8427 24.8327 47.6924C25.1333 45.7227 25.8595 43.8337 26.9702 42.1619L28.7501 39.4826C30.2798 37.18 31.3451 34.599 31.8859 31.8854L32.9201 26.696ZM52.2565 48.6314C51.6125 49.1189 51.0902 49.7733 50.7587 50.549L48.4032 56.0649C47.2141 56.7681 45.8397 57.1585 44.4063 57.1585H39.5936C38.1602 57.1585 36.7859 56.7681 35.5969 56.0652L33.2412 50.549C32.9098 49.7732 32.3876 49.1188 31.7434 48.6313C31.8224 47.6313 32.0913 46.6428 32.5502 45.7219L36.4088 37.9774L36.4319 38.0006C39.5073 41.0868 44.4933 41.0868 47.5686 38.0006L47.5913 37.9779L51.4496 45.7219C51.9087 46.6429 52.1773 47.6313 52.2565 48.6314ZM46.7247 32.4738V28.7093H43.5748V31.1955C44.2433 31.3324 44.8982 31.5573 45.522 31.8703L46.7247 32.4738ZM40.4249 31.1957V28.7093H37.275V32.4742L38.4785 31.8703C39.1021 31.5574 39.7567 31.3326 40.4249 31.1957ZM25.2332 50.8364C24.5892 50.8364 24.01 51.2299 23.7708 51.83L22.2628 55.6131C22.0094 56.2489 22.1927 56.976 22.7169 57.4145L28.495 62.2464C29.0558 62.7153 29.8642 62.7361 30.4483 62.2967L32.7748 60.5456C33.356 60.1084 33.5636 59.3285 33.2775 58.6586L30.3459 51.7943C30.0978 51.2131 29.5284 50.8364 28.8983 50.8364H25.2332ZM60.2292 51.83C59.99 51.2299 59.411 50.8364 58.7667 50.8364H55.1017C54.4715 50.8364 53.9023 51.2131 53.6539 51.7943L50.7225 58.6586C50.4364 59.3285 50.644 60.1084 51.2251 60.5456L53.5518 62.2967C54.1357 62.7361 54.9441 62.7153 55.505 62.2464L61.2832 57.4145C61.8073 56.976 61.9907 56.2489 61.7371 55.6131L60.2292 51.83ZM39.8872 34.6976C41.2174 34.0302 42.7831 34.0302 44.1133 34.6976L45.6413 35.4643L45.3413 35.7654C43.4961 37.6171 40.5044 37.6171 38.6593 35.7654L38.3592 35.4643L39.8872 34.6976Z" fill="url(#paint1_linear_196_293)"/>
</g>
<g clip-path="url(#clip2_196_293)">
<mask id="mask0_196_293" style="mask-type:luminance" maskUnits="userSpaceOnUse" x="36" y="42" width="12" height="13">
<path d="M48 42.5H36V54.6429H48V42.5Z" fill="white"/>
</mask>
<g mask="url(#mask0_196_293)">
<path fill-rule="evenodd" clip-rule="evenodd" d="M40.548 54.4612C43.763 55.2723 47.0189 53.2928 47.8204 50.0403C48.6218 46.7875 46.6656 43.4926 43.4508 42.6817C40.2367 41.8708 36.9808 43.8504 36.1797 47.1034C35.3779 50.3558 37.3343 53.6503 40.548 54.4612ZM40.6964 45.7215L40.0364 44.0715L39.3146 45.6954L40 46L39.3146 45.6954L39.3146 45.6954L39.3146 45.6956L39.3144 45.696L39.3137 45.6975L39.3111 45.7033L39.301 45.726L39.2626 45.8129C39.2293 45.8884 39.1811 45.9976 39.1216 46.1332C39.0691 46.2529 39.0077 46.3933 38.9399 46.5491L38.2612 46.297L37.5582 46.0358L37.0358 47.4418L37.7388 47.703L38.3476 47.9293L38.2948 48.0547L37.7016 47.8435L36.995 47.5919L36.4919 49.005L37.1984 49.2565L37.7264 49.4445C37.6449 49.6519 37.5704 49.8471 37.5066 50.0222C37.4394 50.2067 37.3808 50.3778 37.338 50.5217C37.3056 50.6309 37.25 50.8239 37.25 51V51.75H38.75V51.0443C38.7535 51.0297 38.7609 50.9993 38.7758 50.9491C38.8062 50.8468 38.8533 50.7078 38.916 50.5357C39.0408 50.1932 39.2148 49.7545 39.4076 49.2849C39.5417 48.9585 39.6837 48.6201 39.8225 48.2932C39.8725 48.1755 39.922 48.0594 39.9706 47.9459L41.3036 51.2785L42 53.0194L42.6964 51.2785L44.0294 47.9459C44.078 48.0594 44.1275 48.1755 44.1775 48.2932C44.3163 48.6201 44.4583 48.9585 44.5924 49.2849C44.7852 49.7545 44.9592 50.1932 45.084 50.5357C45.1467 50.7078 45.1938 50.8468 45.2242 50.9491C45.2391 50.9993 45.2465 51.0297 45.25 51.0443V51.75H46.75V51C46.75 50.8239 46.6944 50.6309 46.662 50.5217C46.6192 50.3778 46.5606 50.2067 46.4934 50.0222C46.4296 49.8471 46.3551 49.6519 46.2736 49.4445L46.8016 49.2565L47.5081 49.005L47.005 47.5919L46.2984 47.8435L45.7052 48.0547L45.6524 47.9293L46.2612 47.703L46.9642 47.4418L46.4418 46.0358L45.7388 46.297L45.0601 46.5491C44.9923 46.3933 44.9309 46.2529 44.8784 46.1332C44.8189 45.9976 44.7707 45.8884 44.7374 45.8129L44.699 45.726L44.6889 45.7033L44.6863 45.6975L44.6856 45.696L44.6854 45.6956L44.6854 45.6954L44.6854 45.6954C44.6854 45.6954 44.6854 45.6954 44 46L44.6854 45.6954L43.9636 44.0715L43.3036 45.7215L42 48.9806L40.6964 45.7215Z" fill="url(#paint2_linear_196_293)"/>
</g>
</g>
<defs>
<linearGradient id="paint0_linear_196_293" x1="42.5" y1="0" x2="42.5" y2="85" gradientUnits="userSpaceOnUse">
<stop offset="0.0499999" stop-color="#FF8A00"/>
<stop offset="0.2375" stop-color="#F31A1A"/>
<stop offset="0.383333" stop-color="#B75A73"/>
<stop offset="0.779167" stop-color="#6A1FEF"/>
<stop offset="1" stop-color="#5A4FD8"/>
</linearGradient>
<linearGradient id="paint1_linear_196_293" x1="42" y1="19.2262" x2="42" y2="65.7737" gradientUnits="userSpaceOnUse">
<stop offset="0.0656249" stop-color="#FF0000"/>
<stop offset="0.305208" stop-color="#FF6B00"/>
<stop offset="0.570833" stop-color="#9622F1"/>
<stop offset="0.784375" stop-color="#6921EE"/>
<stop offset="1" stop-color="#456CCF"/>
</linearGradient>
<linearGradient id="paint2_linear_196_293" x1="42" y1="42.5" x2="42" y2="54.643" gradientUnits="userSpaceOnUse">
<stop stop-color="#FF4C4C"/>
<stop offset="0.690625" stop-color="#FFBA6A"/>
<stop offset="1" stop-color="#FFF96A"/>
</linearGradient>
<clipPath id="clip0_196_293">
<rect width="85" height="85" fill="white"/>
</clipPath>
<clipPath id="clip1_196_293">
<rect width="46" height="46.5476" fill="white" transform="translate(19 19.2262)"/>
</clipPath>
<clipPath id="clip2_196_293">
<rect width="12" height="12.1429" fill="white" transform="translate(36 42.5)"/>
</clipPath>
</defs>
</svg>
